<svg width="24" height="24" viewBox="0 0 24 24" fill="none" xmlns="http://www.w3.org/2000/svg">
<g clip-path="url(#clip0_6567_38857)">
<path fill-rule="evenodd" clip-rule="evenodd" d="M18 4V2H16V4H8V2H6V4H5C3.89 4 3.01 4.9 3.01 6L3 19C3 20.1 3.89 21 5 21H19C20.1 21 21 20.1 21 19V6C21 4.9 20.1 4 19 4H18ZM19 19H5V9H19V19ZM17 11H10V13H17V11ZM17 15H15V17H17V15ZM9 11H7V13H9V11ZM14 15H7V17H14V15Z" fill="#444746"/>
</g>
<defs>
<clipPath id="clip0_6567_38857">
<rect width="24" height="24" fill="white"/>
</clipPath>
</defs>
</svg>
