<svg width="18" height="18" viewBox="0 0 18 18" fill="none" xmlns="http://www.w3.org/2000/svg">
<g clip-path="url(#clip0_3155_24809)">
<path fill-rule="evenodd" clip-rule="evenodd" d="M0 9C0 4.02944 4.02944 0 9 0C13.9706 0 18 4.02944 18 9C18 13.9706 13.9706 18 9 18C4.02944 18 0 13.9706 0 9Z" fill="#D9D9D9"/>
<path fill-rule="evenodd" clip-rule="evenodd" d="M9 6C7.895 6 7 5.105 7 4C7 2.895 7.895 2 9 2C10.105 2 11 2.895 11 4C11 5.105 10.105 6 9 6ZM9 11C7.895 11 7 10.105 7 9C7 7.895 7.895 7 9 7C10.105 7 11 7.895 11 9C11 10.105 10.105 11 9 11ZM7 14C7 15.105 7.895 16 9 16C10.105 16 11 15.105 11 14C11 12.895 10.105 12 9 12C7.895 12 7 12.895 7 14Z" fill="black" fill-opacity="0.66"/>
</g>
<defs>
<clipPath id="clip0_3155_24809">
<rect width="18" height="18" fill="white"/>
</clipPath>
</defs>
</svg>
