<svg width="24" height="24" viewBox="0 0 24 24" fill="none" xmlns="http://www.w3.org/2000/svg">
<g id="bigquery/flat-24" clip-path="url(#clip0_6567_39170)">
<path id="Shape" fill-rule="evenodd" clip-rule="evenodd" d="M3 11.0004C3 6.58182 6.58188 3 11 3C15.4182 3 19.0001 6.58182 19 11.0004C19 12.7895 18.4127 14.4415 17.4203 15.774C17.5222 15.7704 17.6253 15.8072 17.7025 15.8844L20.8895 19.0716C21.0368 19.2192 21.0368 19.461 20.8895 19.6088L19.609 20.8887C19.4612 21.0369 19.2193 21.0369 19.0716 20.8887L15.885 17.703C15.8074 17.6254 15.7704 17.5222 15.774 17.4203C14.4414 18.413 12.7893 19.0004 11 19.0004C6.58188 19.0004 3 15.4186 3 11.0004ZM10.9998 16.9999C7.68608 16.9999 5 14.3139 5 11.0002C5 7.68655 7.68608 4.99994 10.9998 4.99994C14.3135 4.99994 17 7.68661 17 11.0002C17 14.3138 14.3135 16.9999 10.9998 16.9999ZM7 13.2731V10.9999H9V14.7722C8.17556 14.402 7.48659 13.887 7 13.2731ZM10 8.99994V14.9326C10.3399 14.9743 10.6876 14.9999 11.0448 14.9999C11.3709 14.9999 11.6882 14.9769 12 14.9421V8.99994H10ZM13.007 14.6999V11.9999H15.007V13.2012C14.5349 13.8128 13.8433 14.327 13.007 14.6999Z" fill="black"/>
</g>
<defs>
<clipPath id="clip0_6567_39170">
<rect width="24" height="24" fill="white"/>
</clipPath>
</defs>
</svg>
